# xmcd
#
# Track frame offsets:
#	150
#	14744
#	29136
#	41823
#	56082
#	68796
#	86743
#	98759
#	114977
#	131642
#
# Disc length: 2092 seconds
#
# Revision: 1
# Processed by: cddbd v1.5.2PL0 Copyright (c) Steve Scherf et al.
# Submitted via: EasyCDDAExtractor 2010.4.0.0
#
DISCID=8f082a0a
DTITLE=Various Artist - Chicago Blues A Living History The Revolution Continu
DTITLE=es
DYEAR=2011
DGENRE=Blues
TTITLE0=Billy Boy Arnold - He's a Jelly Roll Baker
TTITLE1=Billy Boy Arnold - I'll Be Up Again Someday
TTITLE2=Billy Boy Arnold - She Don't Love Me That Way
TTITLE3=John Primer - Canary Bird
TTITLE4=John Primer - Chicago Bound
TTITLE5=Lurrie Bell - Stockyard Blues
TTITLE6=Lurrie Bell - Diamonds At Your Feet
TTITLE7=James Cotton - Rocket 88
TTITLE8=John Primer - Reelin' and Rockin'
TTITLE9=Billy Branch - Medley: Mellow Down Easy/Bo Diddley
EXTD=
EXTT0=
EXTT1=
EXTT2=
EXTT3=
EXTT4=
EXTT5=
EXTT6=
EXTT7=
EXTT8=
EXTT9=
PLAYORDER=
